<svg xmlns="http://www.w3.org/2000/svg" version="1.1" xmlns:xlink="http://www.w3.org/1999/xlink" xmlns:svgjs="http://svgjs.dev/svgjs" width="1500" height="937" viewBox="0 0 1500 937"><g transform="matrix(1,0,0,1,0,0)"><svg viewBox="0 0 512 320" data-background-color="#ffffff" preserveAspectRatio="xMidYMid meet" height="937" width="1500" xmlns="http://www.w3.org/2000/svg" xmlns:xlink="http://www.w3.org/1999/xlink"><g id="tight-bounds" transform="matrix(1,0,0,1,0,0)"><svg viewBox="0 0 512 320" height="320" width="512"><g><svg></svg></g><g><svg viewBox="0 0 512 320" height="320" width="512"><g><path d="M96 160c0-88.366 71.634-160 160-160 88.366 0 160 71.634 160 160 0 88.366-71.634 160-160 160-88.366 0-160-71.634-160-160zM256 306.78c81.064 0 146.78-65.716 146.78-146.78 0-81.064-65.716-146.78-146.78-146.78-81.064 0-146.78 65.716-146.78 146.78 0 81.064 65.716 146.78 146.78 146.78z" fill="#e5e5e5" fill-rule="nonzero" stroke="none" stroke-width="1" stroke-linecap="butt" stroke-linejoin="miter" stroke-miterlimit="10" stroke-dasharray="" stroke-dashoffset="0" font-family="none" font-weight="none" font-size="none" text-anchor="none" style="mix-blend-mode: normal" data-fill-palette-color="tertiary"></path></g><g transform="matrix(1,0,0,1,116,20)"><svg viewBox="0 0 280 280" height="280" width="280"><g><svg viewBox="0 0 280 280" height="280" width="280"><g><svg viewBox="0 0 280 280" height="280" width="280"><g id="textblocktransform"><svg viewBox="0 0 280 280" height="280" width="280" id="textblock"><g><svg viewBox="0 0 280 280" height="280" width="280"><g transform="matrix(1,0,0,1,86.54272734229701,92.88105567979784)"><svg viewBox="0 0 106.91454531540599 94.23788864040431" height="94.23788864040431" width="106.91454531540599"><g id="icon-0"><svg xmlns:x="http://ns.adobe.com/Extensibility/1.0/" xmlns:i="http://ns.adobe.com/AdobeIllustrator/10.0/" xmlns:graph="http://ns.adobe.com/Graphs/1.0/" xmlns="http://www.w3.org/2000/svg" xmlns:xlink="http://www.w3.org/1999/xlink" version="1.1" x="0" y="0" viewBox="1.2 6.897981084602329 97.8 86.20403783079534" enable-background="new 0 0 100 100" xml:space="preserve" height="94.23788864040431" width="106.91454531540599" class="icon-jxe-0" data-fill-palette-color="accent" id="jxe-0"><path d="M95.8 57.1V48.5C95.8 45.3 93.2 42.6 89.9 42.6L82.2 42 75.3 31.6C75.2 31.5 75.2 31.4 75.1 31.3 74.1 29.8 72.3 28.8 70.4 28.8H27.9C25 28.8 22.5 31.1 22.2 33.9H3.6C2.4 33.9 1.2 34.9 1.2 36.3 1.2 37.5 2.2 38.7 3.6 38.7H25.2C26.3 38.8 27.2 39.8 27.2 41S26.2 43.4 24.8 43.4H9.2C8 43.4 6.8 44.4 6.8 45.8 6.8 47 7.8 48.2 9.2 48.2H32.5C33.7 48.2 34.9 49.2 34.9 50.6 34.9 51.8 33.9 53 32.5 53H16C14.8 53 13.6 54 13.6 55.4 13.6 56.6 14.6 57.8 16 57.8H22.1C20.6 58.1 19.6 59.5 19.6 61.1V65C19.6 66.8 21.1 68.4 23 68.4H27.7C28.7 72.1 32.2 74.9 36.3 74.9S43.8 72.2 44.9 68.4H74.2C75.2 72.1 78.7 74.9 82.8 74.9S90.3 72.2 91.4 68.4H95.6C97.4 68.4 99 66.9 99 65V60.7C98.9 58.7 97.5 57.2 95.8 57.1M36.3 69.9C33.8 69.9 31.8 67.9 31.8 65.4S33.8 60.9 36.3 60.9 40.8 62.9 40.8 65.4 38.7 69.9 36.3 69.9M82.8 69.9C80.3 69.9 78.3 67.9 78.3 65.4S80.3 60.9 82.8 60.9 87.3 62.9 87.3 65.4 85.2 69.9 82.8 69.9M8.3 67.9V75.9C8.3 80.1 11.7 83.5 15.9 83.5H31.5V80.2C31.5 79.6 32.2 79.2 32.7 79.5L43.2 85.6C43.7 85.9 43.7 86.7 43.2 87L32.7 93C32.2 93.3 31.5 92.9 31.5 92.3V89H15.9C8.7 89 2.8 83.1 2.8 75.9V67.9zM86.3 32.1V24.1C86.3 19.9 82.9 16.5 78.7 16.5H63.2V19.8C63.2 20.4 62.5 20.8 62 20.5L51.5 14.4C51 14.1 51 13.3 51.5 13L61.9 7C62.4 6.7 63.1 7.1 63.1 7.7V11H78.7C85.9 11 91.8 16.9 91.8 24.1V32.1z" fill="#545b5d" data-fill-palette-color="accent"></path></svg><g></g></g></svg></g><g id="text-0"><path d="M8.752 84.915l1.133-3.169 26.411 9.447-1.346 3.764-26.323 6.011 21.431 7.666-1.137 3.179-26.411-9.448 1.305-3.65 26.518-6.08z" fill="#545b5d" data-fill-palette-color="primary"></path><path d="M31.47 61.324v0c1.79-2.439 4.011-3.675 6.662-3.709v0c2.304-0.057 4.721 0.843 7.251 2.701v0c2.821 2.071 4.425 4.383 4.812 6.937v0c0.362 2.204-0.246 4.381-1.823 6.529v0c-1.822 2.482-4.045 3.766-6.668 3.853v0c-2.287 0.069-4.661-0.8-7.122-2.606v0c-2.864-2.103-4.517-4.467-4.958-7.094v0c-0.362-2.238 0.253-4.441 1.846-6.611zM33.836 63.061v0c-1.083 1.475-1.378 3.04-0.885 4.693 0.483 1.655 1.683 3.187 3.599 4.594v0c1.997 1.466 3.871 2.113 5.622 1.94v0c1.531-0.144 2.798-0.9 3.802-2.267v0c1.067-1.454 1.369-2.971 0.907-4.554-0.453-1.584-1.616-3.063-3.49-4.438v0c-2.067-1.518-3.987-2.215-5.76-2.091v0c-1.558 0.091-2.823 0.798-3.795 2.123z" fill="#545b5d" data-fill-palette-color="primary"></path><path d="M62.092 31.773l6.732 20.485-2.703 2.201-18.214-11.136 2.828-2.303 14.424 9.275-5.855-16.251z" fill="#545b5d" data-fill-palette-color="primary"></path><path d="M99.657 31.443v0l1.11 2.334c-0.667 0.665-1.224 1.104-1.67 1.316v0c-1.888 0.898-3.322 0.527-4.302-1.114v0c-0.456 2.384-2.101 4.25-4.935 5.599v0c-1.954 0.93-3.732 1.11-5.334 0.542v0c-1.394-0.49-2.446-1.48-3.155-2.97v0c-0.806-1.695-0.826-3.29-0.059-4.786v0c0.435-0.843 1.62-2.028 3.555-3.556v0l5.302-4.176-0.688-1.537c-0.864-1.815-2.665-2.071-5.402-0.769v0c-2.617 1.246-3.514 2.974-2.691 5.186v0l-2.94 1.399c-0.691-1.639-0.874-3.057-0.549-4.254v0c0.571-2.032 2.259-3.716 5.063-5.05v0c4.553-2.167 7.614-1.601 9.185 1.698v0l4.834 10.158c0.425 0.892 1.026 1.154 1.804 0.783v0c0.09-0.043 0.305-0.23 0.643-0.561v0c0.116-0.114 0.192-0.195 0.229-0.242zM92.848 30.168l-1.511-3.175-4.099 3.416c-1.473 1.226-2.416 2.211-2.832 2.956-0.409 0.742-0.422 1.514-0.04 2.316v0c0.887 1.863 2.533 2.223 4.939 1.077v0c1.695-0.806 2.87-2.043 3.527-3.709v0c0.427-1.046 0.432-2.007 0.016-2.881z" fill="#545b5d" data-fill-palette-color="primary"></path><path d="M160.931 0.496l-7.481 27.947-3.917-0.056-6.143-23.121-6.628 22.939-3.917-0.056-6.772-28.149 3.997 0.057 4.964 22.833 6.555-22.669 3.836 0.055 6.057 22.849 5.503-22.685z" fill="#545b5d" data-fill-palette-color="primary"></path><path d="M171.05 31.281l8.598-26.699 3.022 0.973-3.291 10.222c1.284-0.849 2.461-1.358 3.532-1.525 1.069-0.161 2.287-0.021 3.654 0.419v0c1.863 0.6 3.177 1.539 3.945 2.818 0.769 1.272 0.894 2.715 0.373 4.33v0l-4.624 14.36-3.014-0.97 4.229-13.131c0.432-1.341 0.337-2.452-0.284-3.333v0c-0.591-0.822-1.408-1.401-2.451-1.736v0c-1.564-0.504-3.013-0.328-4.348 0.526-1.33 0.863-2.308 2.263-2.932 4.202v0l-3.387 10.518z" fill="#545b5d" data-fill-palette-color="primary"></path><path d="M217.394 43.968l-0.066 0.101-12.467-8.061c-0.913 1.462-1.351 2.809-1.313 4.043v0c0.052 1.998 0.965 3.57 2.737 4.715v0c2.193 1.418 4.348 1.332 6.465-0.258v0l2.7 1.746c-1.503 1.549-3.207 2.408-5.112 2.576-1.911 0.164-3.832-0.378-5.761-1.625v0c-2.569-1.661-3.964-3.807-4.187-6.44v0c-0.212-2.316 0.495-4.734 2.124-7.252v0c1.885-2.916 4.142-4.678 6.769-5.286v0c2.286-0.51 4.529-0.055 6.727 1.367v0c1.598 1.033 2.758 2.328 3.478 3.882 0.72 1.555 0.913 3.171 0.577 4.847v0c-0.28 1.441-1.17 3.323-2.671 5.645zM206.387 33.87l9.472 6.124c0.95-1.469 1.284-2.939 1.002-4.41-0.273-1.473-1.088-2.648-2.444-3.525v0c-1.385-0.896-2.798-1.177-4.239-0.844-1.442 0.324-2.706 1.209-3.791 2.655z" fill="#545b5d" data-fill-palette-color="primary"></path><path d="M239.855 66.446l-0.088 0.082-10.042-10.936c-1.251 1.185-2.013 2.379-2.287 3.583v0c-0.452 1.947 0.036 3.698 1.464 5.252v0c1.766 1.923 3.874 2.382 6.322 1.375v0l2.175 2.369c-1.844 1.122-3.709 1.525-5.596 1.208-1.891-0.322-3.614-1.329-5.167-3.021v0c-2.069-2.253-2.88-4.682-2.434-7.286v0c0.377-2.295 1.669-4.457 3.879-6.485v0c2.558-2.349 5.185-3.487 7.88-3.415v0c2.341 0.081 4.397 1.085 6.168 3.014v0c1.287 1.402 2.084 2.946 2.39 4.632 0.306 1.686 0.086 3.298-0.659 4.836v0c-0.633 1.325-1.968 2.922-4.005 4.792zM231.74 53.906l7.629 8.308c1.289-1.183 1.982-2.522 2.078-4.016 0.106-1.494-0.387-2.836-1.48-4.027v0c-1.116-1.215-2.412-1.842-3.89-1.881-1.477-0.049-2.923 0.49-4.337 1.616z" fill="#545b5d" data-fill-palette-color="primary"></path><path d="M264.134 68.931l1.677 2.745-23.938 14.62-1.677-2.744z" fill="#545b5d" data-fill-palette-color="primary"></path><path d="M266.372 107.496v0.001l-1.188-3.32c1.859-0.772 2.352-2.378 1.478-4.818v0c-0.448-1.251-1.04-2.153-1.777-2.705-0.745-0.556-1.523-0.689-2.335-0.398v0c-1.226 0.439-1.691 1.925-1.394 4.457v0l0.374 3.154c0.237 2.05 0.1 3.639-0.412 4.766-0.512 1.127-1.469 1.941-2.87 2.443v0c-1.798 0.644-3.47 0.452-5.016-0.577-1.546-1.028-2.745-2.734-3.599-5.117v0c-0.934-2.609-1.027-4.811-0.279-6.604v0c0.601-1.492 1.724-2.575 3.37-3.249v0l1.229 3.433c-0.792 0.503-1.324 0.999-1.596 1.486v0c-0.547 0.948-0.496 2.33 0.155 4.148v0c0.484 1.352 1.12 2.337 1.909 2.955 0.795 0.616 1.608 0.776 2.438 0.479v0c1.258-0.45 1.771-1.73 1.541-3.84v0l-0.347-3.079c-0.259-2.348-0.187-4.079 0.215-5.195v0c0.46-1.271 1.454-2.18 2.982-2.727v0c1.717-0.615 3.316-0.446 4.799 0.506 1.477 0.954 2.611 2.538 3.403 4.75v0c0.828 2.314 0.893 4.316 0.193 6.007v0c-0.61 1.467-1.701 2.482-3.273 3.045z" fill="#545b5d" data-fill-palette-color="primary"></path><path d="M42.614 190.987l1.133 3.169-26.411 9.448-1.346-3.764 16.538-21.343-21.43 7.666-1.137-3.179 26.411-9.447 1.305 3.65-16.645 21.52z" fill="#545b5d" data-fill-palette-color="primary"></path><path d="M48.396 214.266v0c1.79 2.439 2.304 4.928 1.542 7.467v0c-0.636 2.215-2.219 4.251-4.749 6.109v0c-2.821 2.071-5.508 2.908-8.06 2.512v0c-2.211-0.315-4.106-1.547-5.683-3.695v0c-1.822-2.482-2.381-4.987-1.678-7.517v0c0.62-2.203 2.16-4.208 4.62-6.013v0c2.864-2.103 5.615-2.971 8.253-2.605v0c2.243 0.325 4.162 1.572 5.755 3.742zM46.029 216.003v0c-1.083-1.475-2.487-2.225-4.212-2.251-1.724-0.035-3.544 0.651-5.461 2.058v0c-1.997 1.466-3.176 3.06-3.536 4.782v0c-0.321 1.503 0.02 2.939 1.024 4.306v0c1.067 1.454 2.425 2.197 4.073 2.23 1.647 0.042 3.407-0.624 5.28-2v0c2.067-1.518 3.307-3.141 3.721-4.868v0c0.38-1.514 0.084-2.932-0.889-4.257z" fill="#545b5d" data-fill-palette-color="primary"></path><path d="M74.805 240.627l-18.695 10.745-2.703-2.201 7.213-20.093 2.828 2.302-6.158 16.004 14.727-9.027z" fill="#545b5d" data-fill-palette-color="primary"></path><path d="M93.328 269.869v0l-1.111 2.334c-0.937-0.098-1.629-0.254-2.074-0.466v0c-1.888-0.898-2.504-2.246-1.849-4.042v0c-2.137 1.15-4.623 1.05-7.458-0.298v0c-1.954-0.93-3.215-2.196-3.784-3.798v0c-0.499-1.391-0.394-2.832 0.315-4.322v0c0.806-1.695 2.032-2.716 3.677-3.064v0c0.928-0.194 2.596-0.022 5.002 0.516v0l6.585 1.481 0.759-1.503c0.864-1.815-0.073-3.374-2.811-4.677v0c-2.617-1.246-4.524-0.851-5.721 1.182v0l-2.94-1.399c0.836-1.57 1.821-2.606 2.955-3.109v0c1.937-0.838 4.308-0.59 7.112 0.745v0c4.553 2.167 6.045 4.9 4.475 8.198v0l-4.835 10.158c-0.425 0.892-0.248 1.524 0.53 1.894v0c0.09 0.043 0.371 0.091 0.841 0.145v0c0.162 0.018 0.272 0.026 0.332 0.025zM90.024 263.781l1.511-3.175-5.236-1.027c-1.88-0.37-3.24-0.481-4.08-0.333-0.834 0.151-1.441 0.627-1.823 1.429v0c-0.887 1.863-0.127 3.368 2.279 4.513v0c1.695 0.806 3.395 0.939 5.103 0.398v0c1.081-0.329 1.83-0.93 2.246-1.805z" fill="#545b5d" data-fill-palette-color="primary"></path><path d="M160.419 251.559l-6.682 28.148-3.917 0.055-6.799-22.936-5.972 23.118-3.917 0.056-7.571-27.945 3.996-0.057 5.613 22.683 5.907-22.847 3.836-0.054 6.705 22.667 4.854-22.832z" fill="#545b5d" data-fill-palette-color="primary"></path><path d="M177.222 275.901l-8.598-26.7 3.023-0.973 3.291 10.222c0.547-1.439 1.207-2.539 1.979-3.3 0.774-0.755 1.845-1.352 3.212-1.792v0c1.863-0.6 3.478-0.604 4.847-0.014 1.367 0.584 2.31 1.684 2.831 3.298v0l4.624 14.361-3.013 0.97-4.229-13.13c-0.432-1.341-1.157-2.188-2.175-2.541v0c-0.96-0.322-1.961-0.316-3.004 0.02v0c-1.564 0.504-2.638 1.492-3.224 2.964-0.577 1.477-0.553 3.185 0.072 5.123v0l3.387 10.518z" fill="#545b5d" data-fill-palette-color="primary"></path><path d="M218.286 245.427l0.065 0.101-12.468 8.06c0.958 1.432 2.007 2.385 3.147 2.857v0c1.843 0.773 3.651 0.586 5.424-0.56v0c2.193-1.418 2.999-3.418 2.419-6.001v0l2.7-1.746c0.796 2.006 0.879 3.913 0.25 5.719-0.635 1.81-1.917 3.339-3.846 4.586v0c-2.569 1.661-5.099 2.052-7.592 1.174v0c-2.199-0.757-4.113-2.395-5.741-4.913v0c-1.885-2.916-2.566-5.697-2.041-8.342v0c0.473-2.294 1.809-4.152 4.008-5.574v0c1.598-1.033 3.255-1.559 4.968-1.577 1.714-0.018 3.266 0.469 4.656 1.463v0c1.2 0.847 2.55 2.431 4.051 4.753zM204.559 251.319l9.473-6.124c-0.95-1.469-2.153-2.377-3.61-2.724-1.455-0.356-2.861-0.095-4.218 0.782v0c-1.385 0.896-2.222 2.068-2.509 3.519-0.296 1.448-0.008 2.964 0.864 4.547z" fill="#545b5d" data-fill-palette-color="primary"></path><path d="M241.066 222.68l0.088 0.081-10.041 10.936c1.287 1.146 2.542 1.804 3.763 1.973v0c1.978 0.284 3.681-0.351 5.109-1.905v0c1.766-1.923 2.044-4.062 0.833-6.416v0l2.175-2.369c1.275 1.742 1.835 3.566 1.679 5.473-0.16 1.912-1.016 3.714-2.57 5.406v0c-2.069 2.253-4.42 3.268-7.052 3.044v0c-2.319-0.18-4.583-1.284-6.792-3.312v0c-2.558-2.349-3.916-4.869-4.073-7.562v0c-0.119-2.339 0.707-4.473 2.478-6.402v0c1.287-1.402 2.758-2.327 4.413-2.775 1.654-0.449 3.279-0.367 4.874 0.246v0c1.374 0.518 3.079 1.712 5.116 3.582zM229.261 231.833l7.629-8.309c-1.289-1.183-2.682-1.76-4.179-1.729-1.497 0.021-2.793 0.627-3.886 1.818v0c-1.116 1.215-1.63 2.56-1.543 4.036 0.077 1.476 0.737 2.871 1.979 4.184z" fill="#545b5d" data-fill-palette-color="primary"></path><path d="M233.443 200.338l1.676-2.744 23.938 14.621-1.676 2.744z" fill="#545b5d" data-fill-palette-color="primary"></path><path d="M257.809 177.452v0l-1.188 3.32c-1.926-0.583-3.326 0.345-4.2 2.785v0c-0.448 1.251-0.562 2.324-0.344 3.218 0.223 0.903 0.74 1.499 1.551 1.79v0c1.226 0.439 2.528-0.414 3.907-2.56v0l1.713-2.675c1.118-1.735 2.232-2.875 3.342-3.421 1.111-0.546 2.367-0.568 3.769-0.066v0c1.798 0.644 2.968 1.854 3.51 3.63 0.542 1.776 0.386 3.855-0.467 6.238v0c-0.934 2.609-2.26 4.369-3.976 5.28v0c-1.411 0.772-2.967 0.896-4.666 0.372v0l1.229-3.433c0.931 0.113 1.657 0.068 2.177-0.135v0c1.025-0.385 1.862-1.486 2.513-3.304v0c0.484-1.352 0.617-2.517 0.4-3.495-0.223-0.981-0.75-1.62-1.58-1.917v0c-1.258-0.45-2.467 0.213-3.628 1.989v0l-1.686 2.599c-1.29 1.978-2.444 3.271-3.463 3.878v0c-1.162 0.69-2.507 0.762-4.035 0.215v0c-1.717-0.615-2.846-1.76-3.388-3.437-0.536-1.674-0.407-3.618 0.385-5.831v0c0.828-2.314 2.05-3.902 3.664-4.764v0c1.402-0.746 2.889-0.838 4.461-0.276z" fill="#545b5d" data-fill-palette-color="primary"></path><path d="M3.608 144.007c0-5.918 4.797-10.715 10.715-10.715 5.918 0 10.715 4.797 10.715 10.715 0 5.918-4.797 10.715-10.715 10.715-5.918 0-10.715-4.797-10.715-10.715z" fill="#545b5d" data-fill-palette-color="primary"></path><path d="M256.06 144.007c0-5.918 4.797-10.715 10.715-10.715 5.918 0 10.715 4.797 10.715 10.715 0 5.918-4.797 10.715-10.715 10.715-5.918 0-10.715-4.797-10.715-10.715z" fill="#545b5d" data-fill-palette-color="primary"></path></g><g id="text-1"></g></svg></g></svg></g></svg></g></svg></g></svg></g></svg></g><defs></defs></svg><rect width="512" height="320" fill="none" stroke="none" visibility="hidden"></rect></g></svg></g></svg>