<svg xmlns="http://www.w3.org/2000/svg" version="1.1" xmlns:xlink="http://www.w3.org/1999/xlink" xmlns:svgjs="http://svgjs.dev/svgjs" width="1500" height="478" viewBox="0 0 1500 478"><g transform="matrix(1,0,0,1,-1.8351063829786654,-1.611258333333268)"><svg viewBox="0 0 376 120" data-background-color="#dedede" preserveAspectRatio="xMidYMid meet" height="478" width="1500" xmlns="http://www.w3.org/2000/svg" xmlns:xlink="http://www.w3.org/1999/xlink"><g id="tight-bounds" transform="matrix(1,0,0,1,0.46023999999999887,0.4048999999999978)"><svg viewBox="0 0 375.07953 119.1901" height="119.1901" width="375.07953"><g><svg></svg></g><g><svg viewBox="0 0 375.07953 119.1901" height="119.1901" width="375.07953"><g transform="matrix(1,0,0,1,-10.22024,-67.85640000000001)"><path d="M10.22 179.344v-111.488h375.08v111.488l-34.709 0 0-3.815 30.894 0v-103.858h-367.45v103.858h30.894l0 3.815z" fill="#374151" fill-rule="nonzero" stroke="none" stroke-width="1" stroke-linecap="butt" stroke-linejoin="miter" stroke-miterlimit="10" stroke-dasharray="" stroke-dashoffset="0" font-family="none" font-weight="none" font-size="none" text-anchor="none" style="mix-blend-mode: normal" data-fill-palette-color="tertiary"></path><g><path d="M70.431 172.193l-3.081 10.487h-1.898l-2.142-8.243-2.02 8.243h-1.877l-3.04-10.487h1.836l2.163 8.161 1.999-8.161h2.041l2.061 8.161 2.081-8.161zM72.124 182.68v-14.609h1.653v5.591c0.503-0.626 1.007-1.065 1.51-1.318 0.503-0.25 1.129-0.375 1.877-0.376v0c1.02 0 1.823 0.254 2.408 0.763 0.585 0.511 0.877 1.209 0.877 2.094v0 7.855h-1.653v-7.182c0-0.735-0.224-1.272-0.673-1.612v0c-0.422-0.313-0.918-0.469-1.489-0.469v0c-0.857 0-1.547 0.32-2.069 0.959-0.525 0.639-0.788 1.489-0.788 2.55v0 5.754zM92.12 177.865v0.061h-7.733c0.014 0.898 0.204 1.612 0.571 2.142v0c0.585 0.857 1.428 1.285 2.53 1.286v0c1.36 0 2.278-0.646 2.755-1.938v0h1.673c-0.218 1.102-0.721 1.959-1.51 2.57-0.789 0.612-1.782 0.918-2.979 0.919v0c-1.591 0-2.809-0.544-3.652-1.633v0c-0.748-0.952-1.122-2.21-1.122-3.774v0c0-1.809 0.49-3.217 1.469-4.224v0c0.857-0.871 1.966-1.306 3.326-1.306v0c0.993 0 1.868 0.238 2.623 0.714 0.754 0.476 1.294 1.129 1.621 1.959v0c0.286 0.707 0.428 1.782 0.428 3.224zM84.448 176.559h5.877c0-0.911-0.268-1.65-0.804-2.216-0.539-0.563-1.23-0.845-2.073-0.845v0c-0.857 0-1.553 0.275-2.09 0.825-0.539 0.552-0.842 1.298-0.91 2.236zM94.385 182.68v-10.487h1.551v1.918c0.612-1.442 1.578-2.163 2.897-2.163v0c0.163 0 0.36 0.02 0.592 0.061v0 1.714c-1.088 0.014-1.836 0.17-2.245 0.469v0c-0.748 0.544-1.122 1.557-1.122 3.04v0 5.448zM109.932 177.865v0.061h-7.733c0.014 0.898 0.204 1.612 0.572 2.142v0c0.585 0.857 1.428 1.285 2.53 1.286v0c1.36 0 2.278-0.646 2.754-1.938v0h1.673c-0.218 1.102-0.721 1.959-1.51 2.57-0.789 0.612-1.782 0.918-2.978 0.919v0c-1.591 0-2.809-0.544-3.653-1.633v0c-0.748-0.952-1.122-2.21-1.122-3.774v0c0-1.809 0.49-3.217 1.469-4.224v0c0.857-0.871 1.966-1.306 3.326-1.306v0c0.993 0 1.868 0.238 2.624 0.714 0.754 0.476 1.294 1.129 1.62 1.959v0c0.286 0.707 0.428 1.782 0.428 3.224zM102.261 176.559h5.876c0-0.911-0.268-1.65-0.804-2.216-0.539-0.563-1.23-0.845-2.073-0.845v0c-0.857 0-1.553 0.275-2.089 0.825-0.539 0.552-0.842 1.298-0.91 2.236zM124.297 172.193l-4.02 10.487h-1.816l-3.693-10.487h1.898l2.775 8.488 2.978-8.488zM134.845 177.865v0.061h-7.733c0.014 0.898 0.204 1.612 0.572 2.142v0c0.585 0.857 1.428 1.285 2.53 1.286v0c1.36 0 2.278-0.646 2.754-1.938v0h1.673c-0.218 1.102-0.721 1.959-1.51 2.57-0.789 0.612-1.782 0.918-2.979 0.919v0c-1.591 0-2.809-0.544-3.652-1.633v0c-0.748-0.952-1.122-2.21-1.122-3.774v0c0-1.809 0.49-3.217 1.469-4.224v0c0.857-0.871 1.966-1.306 3.326-1.306v0c0.993 0 1.868 0.238 2.624 0.714 0.754 0.476 1.294 1.129 1.62 1.959v0c0.286 0.707 0.428 1.782 0.428 3.224zM127.174 176.559h5.876c0-0.911-0.268-1.65-0.804-2.216-0.539-0.563-1.23-0.845-2.073-0.845v0c-0.857 0-1.553 0.275-2.089 0.825-0.539 0.552-0.842 1.298-0.91 2.236zM137.131 182.68v-14.609h1.652v5.591c0.503-0.626 1.007-1.065 1.51-1.318 0.503-0.25 1.129-0.375 1.877-0.376v0c1.02 0 1.823 0.254 2.408 0.763 0.585 0.511 0.877 1.209 0.877 2.094v0 7.855h-1.652v-7.182c0-0.735-0.224-1.272-0.674-1.612v0c-0.422-0.313-0.918-0.469-1.489-0.469v0c-0.857 0-1.547 0.32-2.069 0.959-0.525 0.639-0.788 1.489-0.788 2.55v0 5.754zM148.189 172.193h1.653v10.487h-1.653zM149.046 168.091v0c0.286 0 0.528 0.099 0.727 0.298 0.196 0.196 0.294 0.43 0.293 0.702v0c0 0.286-0.098 0.526-0.293 0.723-0.199 0.199-0.441 0.298-0.727 0.297v0c-0.272 0-0.506-0.099-0.702-0.297-0.199-0.196-0.298-0.437-0.298-0.723v0c0-0.272 0.099-0.506 0.298-0.702 0.196-0.199 0.43-0.298 0.702-0.298zM160.738 175.702v0h-1.674c-0.204-1.469-1.034-2.204-2.489-2.204v0c-0.911 0-1.625 0.36-2.142 1.082-0.517 0.721-0.775 1.721-0.776 2.999v0c0 1.265 0.306 2.231 0.919 2.898v0c0.517 0.585 1.211 0.877 2.081 0.877v0c1.401 0 2.238-0.762 2.509-2.285v0h1.694c-0.109 1.306-0.578 2.292-1.408 2.958v0c-0.721 0.585-1.666 0.877-2.836 0.878v0c-1.537 0-2.734-0.544-3.591-1.633v0c-0.735-0.939-1.102-2.17-1.102-3.693v0c0-1.823 0.483-3.251 1.449-4.285v0c0.83-0.884 1.904-1.326 3.224-1.326v0c1.523 0 2.666 0.51 3.427 1.53v0c0.394 0.53 0.633 1.265 0.715 2.204zM162.696 168.071h1.673v14.609h-1.673zM176.04 177.865v0.061h-7.733c0.014 0.898 0.204 1.612 0.572 2.142v0c0.585 0.857 1.428 1.285 2.53 1.286v0c1.36 0 2.278-0.646 2.754-1.938v0h1.673c-0.218 1.102-0.721 1.959-1.51 2.57-0.789 0.612-1.782 0.918-2.979 0.919v0c-1.591 0-2.809-0.544-3.652-1.633v0c-0.748-0.952-1.122-2.21-1.122-3.774v0c0-1.809 0.49-3.217 1.469-4.224v0c0.857-0.871 1.966-1.306 3.326-1.306v0c0.993 0 1.868 0.238 2.624 0.714 0.754 0.476 1.294 1.129 1.62 1.959v0c0.286 0.707 0.428 1.782 0.428 3.224zM168.369 176.559h5.876c0-0.911-0.268-1.65-0.804-2.216-0.539-0.563-1.23-0.845-2.073-0.845v0c-0.857 0-1.553 0.275-2.089 0.825-0.539 0.552-0.842 1.298-0.91 2.236zM185.773 175.07v0h-1.836c-0.054-1.047-0.755-1.571-2.102-1.572v0c-0.694 0-1.241 0.132-1.641 0.396-0.403 0.267-0.604 0.624-0.603 1.074v0c0 0.68 0.646 1.17 1.938 1.469v0l1.612 0.367c1.047 0.245 1.802 0.592 2.265 1.04 0.462 0.449 0.694 1.061 0.693 1.837v0c0 0.993-0.388 1.778-1.163 2.354-0.775 0.579-1.823 0.869-3.142 0.87v0c-1.442 0-2.537-0.34-3.285-1.021v0c-0.626-0.558-0.959-1.299-1-2.224v0h1.898c0.109 0.476 0.258 0.823 0.449 1.041v0c0.367 0.435 1.054 0.653 2.061 0.653v0c0.748 0 1.344-0.14 1.787-0.42 0.441-0.277 0.661-0.647 0.661-1.11v0c0-0.694-0.537-1.17-1.612-1.429v0l-1.571-0.367c-1.197-0.286-2.034-0.626-2.51-1.02v0c-0.544-0.449-0.816-1.095-0.816-1.938v0c0-0.952 0.365-1.707 1.094-2.265 0.726-0.558 1.702-0.837 2.926-0.837v0c1.279 0 2.272 0.32 2.979 0.959v0c0.612 0.558 0.918 1.272 0.918 2.143zM192.098 182.68v-10.487h1.551v1.51c0.816-1.156 1.891-1.734 3.223-1.735v0c1.292 0 2.231 0.517 2.816 1.551v0c0.503-0.585 0.99-0.99 1.461-1.216 0.468-0.223 1.049-0.335 1.743-0.335v0c2.04 0 3.061 0.959 3.06 2.877v0 7.835h-1.673v-7.182c0-1.387-0.653-2.081-1.959-2.081v0c-0.68 0-1.258 0.265-1.734 0.796-0.476 0.53-0.714 1.163-0.714 1.897v0 6.57h-1.673v-7.182c0-1.387-0.646-2.081-1.939-2.081v0c-0.694 0-1.281 0.261-1.763 0.783-0.484 0.525-0.726 1.162-0.726 1.91v0 6.57zM217.643 177.865v0.061h-7.733c0.014 0.898 0.204 1.612 0.572 2.142v0c0.585 0.857 1.428 1.285 2.53 1.286v0c1.36 0 2.278-0.646 2.754-1.938v0h1.673c-0.218 1.102-0.721 1.959-1.51 2.57-0.789 0.612-1.782 0.918-2.978 0.919v0c-1.591 0-2.809-0.544-3.653-1.633v0c-0.748-0.952-1.122-2.21-1.122-3.774v0c0-1.809 0.49-3.217 1.469-4.224v0c0.857-0.871 1.966-1.306 3.326-1.306v0c0.993 0 1.868 0.238 2.624 0.714 0.754 0.476 1.294 1.129 1.62 1.959v0c0.286 0.707 0.428 1.782 0.428 3.224zM209.972 176.559h5.876c0-0.911-0.268-1.65-0.804-2.216-0.539-0.563-1.23-0.845-2.073-0.845v0c-0.857 0-1.553 0.275-2.089 0.825-0.539 0.552-0.842 1.298-0.91 2.236zM228.784 177.865v0.061h-7.733c0.014 0.898 0.204 1.612 0.571 2.142v0c0.585 0.857 1.428 1.285 2.53 1.286v0c1.36 0 2.278-0.646 2.755-1.938v0h1.673c-0.218 1.102-0.721 1.959-1.51 2.57-0.789 0.612-1.782 0.918-2.979 0.919v0c-1.591 0-2.809-0.544-3.652-1.633v0c-0.748-0.952-1.122-2.21-1.123-3.774v0c0-1.809 0.49-3.217 1.47-4.224v0c0.857-0.871 1.966-1.306 3.325-1.306v0c0.993 0 1.868 0.238 2.624 0.714 0.754 0.476 1.294 1.129 1.62 1.959v0c0.286 0.707 0.428 1.782 0.429 3.224zM221.112 176.559h5.876c0-0.911-0.268-1.65-0.804-2.216-0.539-0.563-1.23-0.845-2.073-0.845v0c-0.857 0-1.553 0.275-2.089 0.825-0.539 0.552-0.842 1.298-0.91 2.236zM233.028 172.193h2.142v1.346h-2.142v6.978c0 0.245 0.086 0.452 0.257 0.621 0.169 0.171 0.389 0.257 0.661 0.257v0c0.258 0 0.653-0.061 1.183-0.184v0l0.184 1.469c-0.843 0.15-1.483 0.224-1.918 0.225v0c-1.347 0-2.02-0.551-2.02-1.653v0-7.713h-1.428v-1.346h1.428v-2.143l1.653-0.755zM244.984 171.968v0c1.578 0 2.782 0.551 3.612 1.653v0c0.735 0.952 1.102 2.244 1.102 3.877v0c0 1.823-0.476 3.21-1.429 4.162v0c-0.816 0.83-1.918 1.245-3.305 1.245v0c-1.605 0-2.829-0.537-3.673-1.612v0c-0.735-0.939-1.102-2.204-1.102-3.795v0c0-1.85 0.483-3.271 1.449-4.265v0c0.83-0.843 1.945-1.265 3.346-1.265zM244.984 173.498v0c-0.952 0-1.7 0.356-2.244 1.07-0.544 0.715-0.816 1.692-0.816 2.93v0c0 1.292 0.306 2.278 0.918 2.958v0c0.53 0.599 1.238 0.898 2.122 0.898v0c0.939 0 1.67-0.34 2.195-1.02 0.522-0.68 0.783-1.625 0.784-2.836v0c0-1.333-0.299-2.353-0.898-3.061v0c-0.517-0.626-1.204-0.939-2.061-0.939zM253.37 187.047h-1.673v-14.854h1.551v1.612c0.775-1.224 1.891-1.836 3.346-1.837v0c1.483 0 2.625 0.571 3.428 1.714v0c0.707 0.993 1.061 2.299 1.061 3.918v0c0 1.728-0.462 3.074-1.388 4.04v0c-0.803 0.843-1.843 1.265-3.121 1.265v0c-1.292 0-2.36-0.469-3.204-1.408v0zM256.308 173.519v0c-0.884 0-1.594 0.36-2.13 1.081-0.539 0.721-0.808 1.687-0.808 2.898v0c0 1.251 0.306 2.231 0.918 2.938v0c0.517 0.599 1.19 0.898 2.02 0.897v0c0.925 0 1.664-0.351 2.216-1.052 0.55-0.699 0.824-1.627 0.824-2.783v0c0-1.279-0.313-2.285-0.938-3.02v0c-0.558-0.639-1.258-0.959-2.102-0.959zM264.511 187.047h-1.674v-14.854h1.551v1.612c0.775-1.224 1.891-1.836 3.346-1.837v0c1.483 0 2.625 0.571 3.428 1.714v0c0.707 0.993 1.061 2.299 1.061 3.918v0c0 1.728-0.462 3.074-1.387 4.04v0c-0.803 0.843-1.843 1.265-3.122 1.265v0c-1.292 0-2.36-0.469-3.203-1.408v0zM267.449 173.519v0c-0.884 0-1.594 0.36-2.13 1.081-0.539 0.721-0.808 1.687-0.808 2.898v0c0 1.251 0.306 2.231 0.918 2.938v0c0.517 0.599 1.19 0.898 2.02 0.897v0c0.925 0 1.664-0.351 2.216-1.052 0.55-0.699 0.824-1.627 0.824-2.783v0c0-1.279-0.313-2.285-0.939-3.02v0c-0.558-0.639-1.258-0.959-2.101-0.959zM278.405 171.968v0c1.578 0 2.782 0.551 3.612 1.653v0c0.735 0.952 1.102 2.244 1.102 3.877v0c0 1.823-0.476 3.21-1.429 4.162v0c-0.816 0.83-1.918 1.245-3.305 1.245v0c-1.605 0-2.829-0.537-3.673-1.612v0c-0.735-0.939-1.102-2.204-1.101-3.795v0c0-1.85 0.483-3.271 1.448-4.265v0c0.83-0.843 1.945-1.265 3.346-1.265zM278.405 173.498v0c-0.952 0-1.7 0.356-2.244 1.07-0.544 0.715-0.816 1.692-0.816 2.93v0c0 1.292 0.306 2.278 0.918 2.958v0c0.53 0.599 1.238 0.898 2.122 0.898v0c0.939 0 1.67-0.34 2.196-1.02 0.522-0.68 0.783-1.625 0.783-2.836v0c0-1.333-0.299-2.353-0.898-3.061v0c-0.517-0.626-1.204-0.939-2.061-0.939zM285.424 182.68v-10.487h1.551v1.918c0.612-1.442 1.578-2.163 2.897-2.163v0c0.163 0 0.36 0.02 0.592 0.061v0 1.714c-1.088 0.014-1.836 0.17-2.244 0.469v0c-0.748 0.544-1.122 1.557-1.123 3.04v0 5.448zM294.075 172.193h2.143v1.346h-2.143v6.978c0 0.245 0.086 0.452 0.258 0.621 0.169 0.171 0.389 0.257 0.661 0.257v0c0.258 0 0.653-0.061 1.183-0.184v0l0.184 1.469c-0.843 0.15-1.483 0.224-1.918 0.225v0c-1.347 0-2.02-0.551-2.02-1.653v0-7.713h-1.428v-1.346h1.428v-2.143l1.653-0.755zM306.42 172.193v10.487h-1.653v-1.653c-0.748 1.251-1.864 1.877-3.346 1.878v0c-1.02 0-1.832-0.256-2.436-0.768-0.607-0.509-0.91-1.192-0.91-2.048v0-7.896h1.652v7.223c0 0.612 0.197 1.102 0.592 1.469 0.394 0.367 0.925 0.551 1.592 0.55v0c0.871 0 1.564-0.317 2.081-0.95 0.517-0.631 0.775-1.484 0.775-2.559v0-5.733zM309.317 182.68v-10.487h1.551v1.775c0.843-1.333 2-2 3.468-2v0c1.02 0 1.83 0.254 2.428 0.763 0.599 0.511 0.898 1.196 0.898 2.053v0 7.896h-1.653v-7.223c0-0.626-0.193-1.122-0.579-1.489-0.389-0.367-0.917-0.551-1.583-0.551v0c-0.871 0-1.564 0.32-2.082 0.959-0.517 0.639-0.775 1.489-0.775 2.55v0 5.754zM320.376 172.193h1.653v10.487h-1.653zM321.233 168.091v0c0.286 0 0.528 0.099 0.726 0.298 0.196 0.196 0.294 0.43 0.294 0.702v0c0 0.286-0.098 0.526-0.294 0.723-0.199 0.199-0.441 0.298-0.726 0.297v0c-0.272 0-0.506-0.099-0.702-0.297-0.199-0.196-0.298-0.437-0.298-0.723v0c0-0.272 0.099-0.506 0.298-0.702 0.196-0.199 0.43-0.298 0.702-0.298zM326.864 172.193h2.143v1.346h-2.143v6.978c0 0.245 0.084 0.452 0.253 0.621 0.171 0.171 0.393 0.257 0.665 0.257v0c0.258 0 0.653-0.061 1.184-0.184v0l0.183 1.469c-0.843 0.15-1.483 0.224-1.918 0.225v0c-1.347 0-2.02-0.551-2.019-1.653v0-7.713h-1.429v-1.346h1.429v-2.143l1.652-0.755zM334.434 180.354l2.918-8.161h1.795l-4.672 12.691c-0.544 1.442-1.449 2.163-2.714 2.162v0c-0.599 0-1.122-0.136-1.571-0.408v0l0.326-1.448c0.34 0.136 0.673 0.204 1 0.204v0c0.653 0 1.109-0.34 1.367-1.02v0l0.633-1.673-3.55-10.508h1.795z" fill="#374151" fill-rule="nonzero" stroke="none" stroke-width="1" stroke-linecap="butt" stroke-linejoin="miter" stroke-miterlimit="10" stroke-dasharray="" stroke-dashoffset="0" font-family="none" font-weight="none" font-size="none" text-anchor="none" style="mix-blend-mode: normal" data-fill-palette-color="secondary" id="text-1"></path></g></g><g transform="matrix(1,0,0,1,29.33176499999999,38.4462175914788)"><svg viewBox="0 0 316.416 42.2976648170424" height="42.2976648170424" width="316.416"><g><svg viewBox="0 0 316.416 42.2976648170424" height="42.2976648170424" width="316.416"><g><svg viewBox="0 0 316.416 42.2976648170424" height="42.2976648170424" width="316.416"><g><svg viewBox="0 0 316.416 42.2976648170424" height="42.2976648170424" width="316.416"><g id="textblocktransform"><svg viewBox="0 0 316.416 42.2976648170424" height="42.2976648170424" width="316.416" id="textblock"><g><svg viewBox="0 0 316.416 42.2976648170424" height="42.2976648170424" width="316.416"><g transform="matrix(1,0,0,1,0,0)"><svg width="316.416" viewBox="1.8400173472249999 -33.9 257.689982652775 34.449999999999996" height="42.2976648170424" data-palette-color="#374151"><path d="M7-32.25L7-32.25Q8.1-32.25 9.15-32.25 10.2-32.25 10.7-32.3L10.7-32.3Q11.45-31.15 13.1-29.05 14.75-26.95 16.95-24.28 19.15-21.6 21.5-18.75 23.85-15.9 26.05-13.13 28.25-10.35 29.85-8.1L29.85-8.1 29.85-26.6Q29.85-27.9 29.8-28.65 29.75-29.4 29.35-30L29.35-30Q29.2-30.25 28.45-30.48 27.7-30.7 26.88-30.83 26.05-30.95 25.65-30.95L25.65-30.95Q25.45-31.2 25.48-31.68 25.5-32.15 25.55-32.35L25.55-32.35Q27-32.3 28.28-32.23 29.55-32.15 31.15-32.15L31.15-32.15Q32.3-32.15 33.02-32.18 33.75-32.2 34.52-32.25 35.3-32.3 36.4-32.35L36.4-32.35Q36.5-32.15 36.55-31.75 36.6-31.35 36.4-30.95L36.4-30.95Q36.1-30.95 35.23-30.85 34.35-30.75 33.55-30.53 32.75-30.3 32.55-30L32.55-30Q32.2-29.45 32.15-28.75 32.1-28.05 32.1-26.65L32.1-26.65 32.1-6.8Q32.1-5.4 32.1-4.35 32.1-3.3 32.13-2.33 32.15-1.35 32.2-0.05L32.2-0.05Q32.15 0.15 31.9 0.2 31.65 0.25 31.55 0.25L31.55 0.25Q31.35 0.25 30.88 0 30.4-0.25 29.85-0.9L29.85-0.9 8.55-27.8 8.55-5.6Q8.55-4.3 8.63-3.58 8.7-2.85 9.05-2.25L9.05-2.25Q9.2-2 9.93-1.78 10.65-1.55 11.48-1.4 12.3-1.25 12.7-1.25L12.7-1.25Q12.9-1 12.9-0.55 12.9-0.1 12.8 0.15L12.8 0.15Q11.35 0.05 10.1-0.03 8.85-0.1 7.25-0.1L7.25-0.1Q6.15-0.1 5.38-0.05 4.6 0 3.88 0.05 3.15 0.1 2 0.15L2 0.15Q1.9-0.05 1.85-0.45 1.8-0.85 2-1.25L2-1.25Q2.3-1.25 3.15-1.38 4-1.5 4.83-1.73 5.65-1.95 5.8-2.25L5.8-2.25Q6.15-2.8 6.23-3.48 6.3-4.15 6.3-5.55L6.3-5.55 6.3-26.75Q6.3-28.15 6.23-28.85 6.15-29.55 5.8-30.1L5.8-30.1Q5.65-30.4 4.83-30.63 4-30.85 3.15-30.95 2.3-31.05 2-31.05L2-31.05Q1.8-31.45 1.85-31.85 1.9-32.25 2-32.45L2-32.45Q3.7-32.4 4.75-32.33 5.8-32.25 7-32.25ZM49.2-21.45L49.2-21.45Q52.45-21.45 54.77-20.05 57.1-18.65 58.37-16.25 59.65-13.85 59.65-10.8L59.65-10.8Q59.65-7.65 58.3-5.13 56.95-2.6 54.6-1.13 52.25 0.35 49.3 0.35L49.3 0.35Q46.1 0.35 43.72-1.07 41.35-2.5 40.07-4.93 38.8-7.35 38.8-10.4L38.8-10.4Q38.8-13.55 40.17-16.05 41.55-18.55 43.9-20 46.25-21.45 49.2-21.45ZM48.65-19.8L48.65-19.8Q46.6-19.8 45.35-18.57 44.1-17.35 43.55-15.43 43-13.5 43-11.4L43-11.4Q43-9.05 43.77-6.7 44.55-4.35 46.07-2.8 47.6-1.25 49.8-1.25L49.8-1.25Q51.9-1.25 53.12-2.48 54.35-3.7 54.9-5.65 55.45-7.6 55.45-9.65L55.45-9.65Q55.45-12.05 54.65-14.38 53.85-16.7 52.35-18.25 50.85-19.8 48.65-19.8ZM66.1-20.75L66.1-20.75Q67.5-20.75 68.52-20.85 69.55-20.95 71-21L71-21Q71.1-20.8 71.05-20.2 71-19.6 70.8-19.6L70.8-19.6Q70.65-19.6 70.05-19.55 69.45-19.5 68.92-19.33 68.4-19.15 68.4-18.75L68.4-18.75Q68.4-18.65 68.45-18.55L68.45-18.55 73.8-5.35Q73.8-5.35 74.2-6.43 74.6-7.5 75.27-9.18 75.95-10.85 76.7-12.8 77.45-14.75 78.15-16.45L78.15-16.45Q78.35-16.9 78.4-17.32 78.45-17.75 78.45-18L78.45-18Q78.45-18.75 77.65-19.18 76.85-19.6 75.6-19.6L75.6-19.6Q75.4-19.6 75.4-20.2 75.4-20.8 75.6-21L75.6-21Q76.75-20.95 77.4-20.85 78.05-20.75 79.55-20.75L79.55-20.75Q80.95-20.75 81.8-20.85 82.65-20.95 84.1-21L84.1-21Q84.25-20.8 84.17-20.2 84.1-19.6 83.95-19.6L83.95-19.6Q83.75-19.6 83.12-19.45 82.5-19.3 81.85-18.95 81.2-18.6 80.9-17.9L80.9-17.9Q79.8-15.3 78.92-13.2 78.05-11.1 77.22-9.13 76.4-7.15 75.5-5.03 74.6-2.9 73.55-0.3L73.55-0.3Q73.45 0 73 0.28 72.55 0.55 72.3 0.55L72.3 0.55Q71.95 0.55 71.85 0.35L71.85 0.35Q69.5-5.3 67.72-9.9 65.95-14.5 63.9-18.6L63.9-18.6Q63.55-19.35 62.65-19.48 61.75-19.6 61.3-19.6L61.3-19.6Q61.2-19.6 61.2-19.6L61.2-19.6Q61.15-19.8 61.1-20.23 61.05-20.65 61.2-21L61.2-21Q62.7-20.95 63.65-20.85 64.6-20.75 66.1-20.75ZM95.49-21.3L95.49-21.3Q96.89-21.3 98.12-20.4 99.34-19.5 100.09-18 100.84-16.5 100.84-14.6L100.84-14.6 100.84-4.55Q100.84-3.6 101.19-2.93 101.54-2.25 102.34-2.25L102.34-2.25Q103.04-2.25 103.44-2.55 103.84-2.85 103.94-2.9L103.94-2.9Q104.04-2.9 104.09-2.75 104.14-2.6 104.14-2.5L104.14-2.5Q104.14-1.95 103.89-1.55L103.89-1.55Q103.59-1.3 102.92-0.85 102.24-0.4 101.52-0.05 100.79 0.3 100.24 0.3L100.24 0.3Q99.19 0.3 98.37-0.75 97.54-1.8 97.29-2.9L97.29-2.9Q97.09-2.7 96.37-2.15 95.64-1.6 94.69-1.03 93.74-0.45 92.82-0.03 91.89 0.4 91.24 0.4L91.24 0.4Q88.84 0.4 87.19-1.23 85.54-2.85 85.54-5.2L85.54-5.2Q85.54-6.7 86.37-7.78 87.19-8.85 87.99-9.15L87.99-9.15Q89.39-9.65 91.12-10.23 92.84-10.8 94.34-11.35 95.84-11.9 96.54-12.2L96.54-12.2Q96.94-12.35 97.04-12.58 97.14-12.8 97.14-13.45L97.14-13.45 97.14-14.75Q97.14-15.85 96.59-16.93 96.04-18 95.09-18.73 94.14-19.45 92.94-19.45L92.94-19.45Q91.69-19.45 91.09-18.65 90.49-17.85 90.24-16.4L90.24-16.4Q89.79-14.05 87.94-14.05L87.94-14.05Q87.14-14.05 86.72-14.7 86.29-15.35 86.29-16.1L86.29-16.1Q86.29-16.25 86.39-16.68 86.49-17.1 86.64-17.3L86.64-17.3Q87.39-18 88.79-18.95 90.19-19.9 91.97-20.6 93.74-21.3 95.49-21.3ZM92.89-2.25L92.89-2.25Q93.74-2.25 94.74-2.65 95.74-3.05 96.44-3.53 97.14-4 97.14-4.25L97.14-4.25 97.14-10.9Q96.19-10.6 94.74-10.15 93.29-9.7 92.59-9.45L92.59-9.45Q91.29-8.95 90.44-8 89.59-7.05 89.59-5.65L89.59-5.65Q89.59-4.3 90.54-3.28 91.49-2.25 92.89-2.25ZM125.09-32.1L125.09-32.1Q126.69-32.1 127.79-32.18 128.89-32.25 130.34-32.3L130.34-32.3Q130.44-32.1 130.41-31.53 130.39-30.95 130.24-30.9L130.24-30.9Q130.04-30.9 129.34-30.78 128.64-30.65 127.99-30.33 127.34-30 127.34-29.3L127.34-29.3Q127.34-29.1 127.54-28.25 127.74-27.4 128.09-26.1L128.09-26.1Q128.64-24.1 129.59-20.98 130.54-17.85 131.64-14.28 132.74-10.7 133.74-7.25L133.74-7.25Q134.59-10.1 135.64-13.4 136.69-16.7 137.74-20 138.79-23.3 139.69-26.1 140.59-28.9 141.14-30.7L141.14-30.7Q141.39-31.4 141.94-31.85 142.49-32.3 142.89-32.3L142.89-32.3Q143.09-32.3 143.44-31.55L143.44-31.55Q143.54-31.25 144.06-29.6 144.59-27.95 145.39-25.38 146.19-22.8 147.19-19.73 148.19-16.65 149.24-13.45 150.29-10.25 151.24-7.35L151.24-7.35Q152.04-10.15 152.69-12.4 153.34-14.65 153.91-16.68 154.49-18.7 155.09-20.85 155.69-23 156.34-25.6L156.34-25.6Q156.59-26.45 156.74-27.4 156.89-28.35 156.89-29L156.89-29Q156.89-29.8 156.19-30.2 155.49-30.6 154.69-30.75 153.89-30.9 153.59-30.9L153.59-30.9Q153.39-31 153.39-31.55 153.39-32.1 153.59-32.3L153.59-32.3Q154.94-32.25 156.24-32.18 157.54-32.1 158.89-32.1L158.89-32.1Q160.04-32.1 160.66-32.13 161.29-32.15 161.91-32.2 162.54-32.25 163.49-32.3L163.49-32.3Q163.59-32.1 163.54-31.5 163.49-30.9 163.39-30.9L163.39-30.9Q163.09-30.9 162.06-30.6 161.04-30.3 160.29-29.65L160.29-29.65Q159.79-29.2 159.39-28.33 158.99-27.45 158.54-25.95L158.54-25.95Q157.19-21.35 156.09-17.45 154.99-13.55 153.91-9.75 152.84-5.95 151.54-1.55L151.54-1.55Q151.34-0.9 150.76-0.4 150.19 0.1 149.69 0.1L149.69 0.1Q149.54 0.1 149.39-0.23 149.24-0.55 149.19-0.7L149.19-0.7Q148.59-2.45 147.79-4.9 146.99-7.35 146.09-10.08 145.19-12.8 144.34-15.4 143.49-18 142.79-20.13 142.09-22.25 141.66-23.53 141.24-24.8 141.24-24.8L141.24-24.8 141.24-24.8Q140.19-21.45 139.29-18.57 138.39-15.7 137.51-13.03 136.64-10.35 135.76-7.58 134.89-4.8 133.89-1.55L133.89-1.55Q133.69-0.9 133.09-0.4 132.49 0.1 131.99 0.1L131.99 0.1Q131.84 0.1 131.71-0.23 131.59-0.55 131.54-0.7L131.54-0.7Q130.14-5.25 128.91-9.18 127.69-13.1 126.44-17.15 125.19-21.2 123.69-26L123.69-26Q123.24-27.45 122.94-28.38 122.64-29.3 121.94-29.95L121.94-29.95Q121.44-30.45 120.51-30.68 119.59-30.9 119.14-30.9L119.14-30.9Q119.09-30.9 119.09-31.58 119.09-32.25 119.14-32.3L119.14-32.3Q120.84-32.25 122.11-32.18 123.39-32.1 125.09-32.1ZM178.99-21.4L178.99-21.4Q181.64-21.4 182.99-20.3 184.34-19.2 184.81-16.9 185.29-14.6 185.29-11.05L185.29-11.05 185.29-5.65Q185.29-4.55 185.31-3.6 185.34-2.65 185.54-2.05L185.54-2.05Q185.64-1.8 186.26-1.6 186.89-1.4 187.61-1.33 188.34-1.25 188.64-1.25L188.64-1.25Q188.79-1.05 188.81-0.55 188.84-0.05 188.64 0.15L188.64 0.15Q187.14 0.05 185.99-0.03 184.84-0.1 183.39-0.1L183.39-0.1Q181.99-0.1 180.86-0.03 179.74 0.05 178.24 0.15L178.24 0.15Q178.04-0.05 178.06-0.55 178.09-1.05 178.24-1.25L178.24-1.25Q178.54-1.25 179.24-1.33 179.94-1.4 180.59-1.6 181.24-1.8 181.29-2.05L181.29-2.05Q181.49-2.65 181.51-3.6 181.54-4.55 181.54-5.65L181.54-5.65 181.54-10.55Q181.54-13.6 181.14-15.33 180.74-17.05 179.69-17.8 178.64-18.55 176.74-18.55L176.74-18.55Q175.84-18.55 174.76-17.98 173.69-17.4 172.89-16.75 172.09-16.1 172.09-15.85L172.09-15.85 172.09-5.65Q172.09-4.55 172.11-3.6 172.14-2.65 172.34-2.05L172.34-2.05Q172.44-1.8 173.06-1.6 173.69-1.4 174.41-1.33 175.14-1.25 175.44-1.25L175.44-1.25Q175.59-1.05 175.61-0.55 175.64-0.05 175.44 0.15L175.44 0.15Q173.94 0.05 172.79-0.03 171.64-0.1 170.19-0.1L170.19-0.1Q168.79-0.1 167.66-0.03 166.54 0.05 165.04 0.15L165.04 0.15Q164.84-0.05 164.86-0.55 164.89-1.05 165.04-1.25L165.04-1.25Q165.34-1.25 166.04-1.33 166.74-1.4 167.39-1.6 168.04-1.8 168.09-2.05L168.09-2.05Q168.29-2.65 168.31-3.6 168.34-4.55 168.34-5.65L168.34-5.65 168.34-27.25Q168.34-27.75 168.31-28.55 168.29-29.35 168.09-29.8L168.09-29.8Q167.89-30.35 167.01-30.5 166.14-30.65 165.14-30.65L165.14-30.65Q165.09-30.65 165.06-31.28 165.04-31.9 165.19-31.95L165.19-31.95Q167.04-32.15 168.79-32.68 170.54-33.2 172.09-33.9L172.09-33.9Q172.29-33.9 172.46-33.63 172.64-33.35 172.64-33.1L172.64-33.1Q172.64-33.1 172.36-32 172.09-30.9 172.09-28.85L172.09-28.85 172.09-17.8Q172.09-17.7 172.24-17.7L172.24-17.7Q172.29-17.7 172.39-17.8L172.39-17.8Q172.89-18.35 174.01-19.2 175.14-20.05 176.49-20.73 177.84-21.4 178.99-21.4ZM194.53-12.1L194.53-12.1Q194.48-9 195.58-6.9 196.68-4.8 198.53-3.78 200.38-2.75 202.53-2.75L202.53-2.75Q203.88-2.75 204.98-3.23 206.08-3.7 206.83-4.33 207.58-4.95 207.88-5.3L207.88-5.3Q207.93-5.3 208.11-5.13 208.28-4.95 208.28-4.65L208.28-4.65Q208.28-4.25 207.98-3.75L207.98-3.75Q207.53-3.05 206.58-2.08 205.63-1.1 204.18-0.35 202.73 0.4 200.83 0.4L200.83 0.4Q197.98 0.4 195.78-0.95 193.58-2.3 192.33-4.6 191.08-6.9 191.08-9.75L191.08-9.75Q191.08-12.2 191.96-14.33 192.83-16.45 194.26-18.03 195.68-19.6 197.38-20.5 199.08-21.4 200.68-21.4L200.68-21.4Q202.88-21.4 204.31-20.65 205.73-19.9 206.56-18.8 207.38-17.7 207.71-16.6 208.03-15.5 208.03-14.75L208.03-14.75Q208.03-13.7 207.78-13.1 207.53-12.5 206.83-12.45L206.83-12.45Q206.38-12.4 205.06-12.38 203.73-12.35 202.03-12.3 200.33-12.25 198.68-12.2 197.03-12.15 195.88-12.13 194.73-12.1 194.53-12.1ZM194.78-13.9L194.78-13.9 202.73-13.9Q203.18-13.9 203.51-14.15 203.83-14.4 203.88-15.05L203.88-15.05Q203.93-15.65 203.53-16.75 203.13-17.85 202.26-18.75 201.38-19.65 199.88-19.65L199.88-19.65Q198.33-19.65 197.33-18.78 196.33-17.9 195.76-16.78 195.18-15.65 194.96-14.78 194.73-13.9 194.78-13.9ZM215.48-12.1L215.48-12.1Q215.43-9 216.53-6.9 217.63-4.8 219.48-3.78 221.33-2.75 223.48-2.75L223.48-2.75Q224.83-2.75 225.93-3.23 227.03-3.7 227.78-4.33 228.53-4.95 228.83-5.3L228.83-5.3Q228.88-5.3 229.06-5.13 229.23-4.95 229.23-4.65L229.23-4.65Q229.23-4.25 228.93-3.75L228.93-3.75Q228.48-3.05 227.53-2.08 226.58-1.1 225.13-0.35 223.68 0.4 221.78 0.4L221.78 0.4Q218.93 0.4 216.73-0.95 214.53-2.3 213.28-4.6 212.03-6.9 212.03-9.75L212.03-9.75Q212.03-12.2 212.91-14.33 213.78-16.45 215.21-18.03 216.63-19.6 218.33-20.5 220.03-21.4 221.63-21.4L221.63-21.4Q223.83-21.4 225.26-20.65 226.68-19.9 227.51-18.8 228.33-17.7 228.66-16.6 228.98-15.5 228.98-14.75L228.98-14.75Q228.98-13.7 228.73-13.1 228.48-12.5 227.78-12.45L227.78-12.45Q227.33-12.4 226.01-12.38 224.68-12.35 222.98-12.3 221.28-12.25 219.63-12.2 217.98-12.15 216.83-12.13 215.68-12.1 215.48-12.1ZM215.73-13.9L215.73-13.9 223.68-13.9Q224.13-13.9 224.46-14.15 224.78-14.4 224.83-15.05L224.83-15.05Q224.88-15.65 224.48-16.75 224.08-17.85 223.21-18.75 222.33-19.65 220.83-19.65L220.83-19.65Q219.28-19.65 218.28-18.78 217.28-17.9 216.71-16.78 216.13-15.65 215.91-14.78 215.68-13.9 215.73-13.9ZM235.38-5.65L235.38-27.25Q235.38-27.8 235.35-28.58 235.33-29.35 235.13-29.8L235.13-29.8Q234.93-30.35 234.05-30.5 233.18-30.65 232.18-30.65L232.18-30.65Q232.13-30.65 232.1-31.28 232.08-31.9 232.23-31.95L232.23-31.95Q234.08-32.15 235.83-32.68 237.58-33.2 239.13-33.9L239.13-33.9Q239.33-33.9 239.5-33.63 239.68-33.35 239.68-33.1L239.68-33.1Q239.68-33.1 239.4-32 239.13-30.9 239.13-28.85L239.13-28.85 239.13-5.65Q239.13-4.55 239.15-3.6 239.18-2.65 239.38-2.05L239.38-2.05Q239.48-1.8 240.1-1.6 240.73-1.4 241.45-1.33 242.18-1.25 242.48-1.25L242.48-1.25Q242.63-1.05 242.65-0.55 242.68-0.05 242.48 0.15L242.48 0.15Q240.98 0.05 239.83-0.03 238.68-0.1 237.23-0.1L237.23-0.1Q235.83-0.1 234.7-0.03 233.58 0.05 232.08 0.15L232.08 0.15Q231.88-0.05 231.9-0.55 231.93-1.05 232.08-1.25L232.08-1.25Q232.38-1.25 233.08-1.33 233.78-1.4 234.43-1.6 235.08-1.8 235.13-2.05L235.13-2.05Q235.33-2.65 235.35-3.6 235.38-4.55 235.38-5.65L235.38-5.65ZM252.98-21.35L252.98-21.35Q254.43-21.35 255.4-21.13 256.38-20.9 257.98-20.7L257.98-20.7Q258.23-19.6 258.38-18.13 258.53-16.65 258.58-15.35L258.58-15.35Q258.58-15.1 258.08-15.1L258.08-15.1Q257.88-15.1 257.65-15.15 257.43-15.2 257.23-15.35L257.23-15.35Q256.98-16.25 256.4-17.3 255.83-18.35 255-19.07 254.18-19.8 253.13-19.8L253.13-19.8Q251.38-19.8 250.53-18.93 249.68-18.05 249.68-16.75L249.68-16.75Q249.68-15.5 250.28-14.73 250.88-13.95 251.85-13.38 252.83-12.8 253.93-12.15L253.93-12.15Q255.03-11.5 256.33-10.7 257.63-9.9 258.58-8.83 259.53-7.75 259.53-6.2L259.53-6.2Q259.53-4.25 258.48-2.73 257.43-1.2 255.73-0.33 254.03 0.55 252.03 0.55L252.03 0.55Q250.33 0.55 249.13 0.23 247.93-0.1 246.33-0.4L246.33-0.4Q246.13-0.95 245.93-1.9 245.73-2.85 245.6-3.85 245.48-4.85 245.48-5.45L245.48-5.45Q245.88-5.75 246.38-5.75L246.38-5.75Q246.63-5.75 246.78-5.65L246.78-5.65Q247.08-4.65 247.83-3.58 248.58-2.5 249.68-1.78 250.78-1.05 252.08-1.05L252.08-1.05Q253.58-1.05 254.58-1.95 255.58-2.85 255.58-4.55L255.58-4.55Q255.58-6.05 254.68-6.98 253.78-7.9 252.43-8.63 251.08-9.35 249.63-10.15L249.63-10.15Q248.18-11 247.05-12.23 245.93-13.45 245.93-15.4L245.93-15.4Q245.93-17.2 246.95-18.55 247.98-19.9 249.58-20.63 251.18-21.35 252.98-21.35Z" opacity="1" transform="matrix(1,0,0,1,0,0)" fill="#374151" class="wordmark-text-0" data-fill-palette-color="primary" id="text-0"></path></svg></g></svg></g></svg></g></svg></g><g></g></svg></g></svg></g></svg></g></svg></g><defs></defs></svg><rect width="375.07953" height="119.1901" fill="none" stroke="none" visibility="hidden"></rect></g></svg></g></svg>